# xmcd CD database file
#
# Track frame offsets:
#	151
#	10118
#	23753
#	38758
#	52889
#	66674
#	79461
#	98020
#	109759
#	122302
#	141739
#	155138
#	167081
#	186224
#	197093
#	212802
#	225755
#	237106
#	250699
#	263374
#	278569
#	291370
#	310145
#
# Disc length: 4297 seconds
#
# Revision: 0
# Processed by: cddbd v1.5.2PL0 Copyright (c) Steve Scherf et al.
# Submitted via: CDex 1.70beta2
#
DISCID=3a10c717
DTITLE=Sidesaddle - Saratoga Gap
DYEAR=1990
DGENRE=Country
TTITLE0=Are You Missing Me
TTITLE1=Ruby's Run
TTITLE2=Had To Say Goodbye
TTITLE3=I'm My Own Grandma
TTITLE4=Blue Water Hornpipe
TTITLE5=Swing Down Sweet Chariot
TTITLE6=The Girl From the Red Rose Saloon
TTITLE7=Dusty Miller
TTITLE8=She's No Angel
TTITLE9=Pineywood Hills
TTITLE10=Wild Pig Chase
TTITLE11=Your Light Leads Me On
TTITLE12=Farewell to Ireland
TTITLE13=Chains of Pride
TTITLE14=A Stranger Kept Me Warm Last Night
TTITLE15=Leavin' Louisiana
TTITLE16=Kentucky Mandolin
TTITLE17=I'll Never Shed Another Tear
TTITLE18=Cross Eyed Fiddler
TTITLE19=Peanut Butter Conspiracy
TTITLE20=If Your Ever Gonna Love Me
TTITLE21=Crazy
TTITLE22=Bells Of Saint Mary's
EXTD=YEAR: 1990
EXTT0=
EXTT1=
EXTT2=
EXTT3=
EXTT4=
EXTT5=
EXTT6=
EXTT7=
EXTT8=
EXTT9=
EXTT10=
EXTT11=
EXTT12=
EXTT13=
EXTT14=
EXTT15=
EXTT16=
EXTT17=
EXTT18=
EXTT19=
EXTT20=
EXTT21=
EXTT22=
PLAYORDER=
